<mxfile host="app.diagrams.net" agent="Mozilla/5.0" version="24.7.17">
  <diagram name="ERD Database Design" id="ERD_Database_Design">
    <mxGraphModel dx="1422" dy="794" grid="1" gridSize="10" guides="1" tooltips="1" connect="1" arrows="1" fold="1" page="1" pageScale="1" pageWidth="1169" pageHeight="827" math="0" shadow="0">
      <root>
        <mxCell id="0" />
        <mxCell id="1" parent="0" />
        
        <!-- User Entity -->
        <mxCell id="User" value="User" style="swimlane;fontStyle=0;childLayout=stackLayout;horizontal=1;startSize=30;horizontalStack=0;resizeParent=1;resizeParentMax=0;resizeLast=0;collapsible=1;marginBottom=0;whiteSpace=wrap;html=1;" vertex="1" parent="1">
          <mxGeometry x="50" y="50" width="200" height="280" as="geometry" />
        </mxCell>
        <mxCell id="User-id" value="+ id: UUID (PK)" style="text;strokeColor=none;fillColor=none;align=left;verticalAlign=middle;spacingLeft=4;spacingRight=4;overflow=hidden;portConstraint=eastwest;rotatable=0;whiteSpace=wrap;html=1;" vertex="1" parent="User">
          <mxGeometry y="30" width="200" height="30" as="geometry" />
        </mxCell>
        <mxCell id="User-email" value="+ email: VARCHAR (UK, NOT NULL)" style="text;strokeColor=none;fillColor=none;align=left;verticalAlign=middle;spacingLeft=4;spacingRight=4;overflow=hidden;portConstraint=eastwest;rotatable=0;whiteSpace=wrap;html=1;" vertex="1" parent="User">
          <mxGeometry y="60" width="200" height="30" as="geometry" />
        </mxCell>
        <mxCell id="User-password" value="+ password_hash: VARCHAR (NOT NULL)" style="text;strokeColor=none;fillColor=none;align=left;verticalAlign=middle;spacingLeft=4;spacingRight=4;overflow=hidden;portConstraint=eastwest;rotatable=0;whiteSpace=wrap;html=1;" vertex="1" parent="User">
          <mxGeometry y="90" width="200" height="30" as="geometry" />
        </mxCell>
        <mxCell id="User-username" value="+ username: VARCHAR(20) (UK, NOT NULL)" style="text;strokeColor=none;fillColor=none;align=left;verticalAlign=middle;spacingLeft=4;spacingRight=4;overflow=hidden;portConstraint=eastwest;rotatable=0;whiteSpace=wrap;html=1;" vertex="1" parent="User">
          <mxGeometry y="120" width="200" height="30" as="geometry" />
        </mxCell>
        <mxCell id="User-address" value="+ address: VARCHAR(500) (NULL)" style="text;strokeColor=none;fillColor=none;align=left;verticalAlign=middle;spacingLeft=4;spacingRight=4;overflow=hidden;portConstraint=eastwest;rotatable=0;whiteSpace=wrap;html=1;" vertex="1" parent="User">
          <mxGeometry y="150" width="200" height="30" as="geometry" />
        </mxCell>
        <mxCell id="User-phone" value="+ phone_number: VARCHAR (NULL)" style="text;strokeColor=none;fillColor=none;align=left;verticalAlign=middle;spacingLeft=4;spacingRight=4;overflow=hidden;portConstraint=eastwest;rotatable=0;whiteSpace=wrap;html=1;" vertex="1" parent="User">
          <mxGeometry y="180" width="200" height="30" as="geometry" />
        </mxCell>
        <mxCell id="User-role" value="+ role: ENUM (DEFAULT 'user')" style="text;strokeColor=none;fillColor=none;align=left;verticalAlign=middle;spacingLeft=4;spacingRight=4;overflow=hidden;portConstraint=eastwest;rotatable=0;whiteSpace=wrap;html=1;" vertex="1" parent="User">
          <mxGeometry y="210" width="200" height="30" as="geometry" />
        </mxCell>
        <mxCell id="User-avatar" value="+ avatar_url: VARCHAR (NULL)" style="text;strokeColor=none;fillColor=none;align=left;verticalAlign=middle;spacingLeft=4;spacingRight=4;overflow=hidden;portConstraint=eastwest;rotatable=0;whiteSpace=wrap;html=1;" vertex="1" parent="User">
          <mxGeometry y="240" width="200" height="40" as="geometry" />
        </mxCell>

        <!-- Category Entity -->
        <mxCell id="Category" value="Category" style="swimlane;fontStyle=0;childLayout=stackLayout;horizontal=1;startSize=30;horizontalStack=0;resizeParent=1;resizeParentMax=0;resizeLast=0;collapsible=1;marginBottom=0;whiteSpace=wrap;html=1;" vertex="1" parent="1">
          <mxGeometry x="320" y="50" width="200" height="120" as="geometry" />
        </mxCell>
        <mxCell id="Category-id" value="+ id: UUID (PK)" style="text;strokeColor=none;fillColor=none;align=left;verticalAlign=middle;spacingLeft=4;spacingRight=4;overflow=hidden;portConstraint=eastwest;rotatable=0;whiteSpace=wrap;html=1;" vertex="1" parent="Category">
          <mxGeometry y="30" width="200" height="30" as="geometry" />
        </mxCell>
        <mxCell id="Category-name" value="+ name: VARCHAR (UK, NOT NULL)" style="text;strokeColor=none;fillColor=none;align=left;verticalAlign=middle;spacingLeft=4;spacingRight=4;overflow=hidden;portConstraint=eastwest;rotatable=0;whiteSpace=wrap;html=1;" vertex="1" parent="Category">
          <mxGeometry y="60" width="200" height="30" as="geometry" />
        </mxCell>
        <mxCell id="Category-desc" value="+ description: TEXT (NULL)" style="text;strokeColor=none;fillColor=none;align=left;verticalAlign=middle;spacingLeft=4;spacingRight=4;overflow=hidden;portConstraint=eastwest;rotatable=0;whiteSpace=wrap;html=1;" vertex="1" parent="Category">
          <mxGeometry y="90" width="200" height="30" as="geometry" />
        </mxCell>

        <!-- Product Entity -->
        <mxCell id="Product" value="Product" style="swimlane;fontStyle=0;childLayout=stackLayout;horizontal=1;startSize=30;horizontalStack=0;resizeParent=1;resizeParentMax=0;resizeLast=0;collapsible=1;marginBottom=0;whiteSpace=wrap;html=1;" vertex="1" parent="1">
          <mxGeometry x="580" y="50" width="220" height="360" as="geometry" />
        </mxCell>
        <mxCell id="Product-id" value="+ id: UUID (PK)" style="text;strokeColor=none;fillColor=none;align=left;verticalAlign=middle;spacingLeft=4;spacingRight=4;overflow=hidden;portConstraint=eastwest;rotatable=0;whiteSpace=wrap;html=1;" vertex="1" parent="Product">
          <mxGeometry y="30" width="220" height="30" as="geometry" />
        </mxCell>
        <mxCell id="Product-name" value="+ name: VARCHAR (UK, NOT NULL)" style="text;strokeColor=none;fillColor=none;align=left;verticalAlign=middle;spacingLeft=4;spacingRight=4;overflow=hidden;portConstraint=eastwest;rotatable=0;whiteSpace=wrap;html=1;" vertex="1" parent="Product">
          <mxGeometry y="60" width="220" height="30" as="geometry" />
        </mxCell>
        <mxCell id="Product-desc" value="+ description: TEXT (NOT NULL)" style="text;strokeColor=none;fillColor=none;align=left;verticalAlign=middle;spacingLeft=4;spacingRight=4;overflow=hidden;portConstraint=eastwest;rotatable=0;whiteSpace=wrap;html=1;" vertex="1" parent="Product">
          <mxGeometry y="90" width="220" height="30" as="geometry" />
        </mxCell>
        <mxCell id="Product-price" value="+ price: DECIMAL(10,2) (NOT NULL)" style="text;strokeColor=none;fillColor=none;align=left;verticalAlign=middle;spacingLeft=4;spacingRight=4;overflow=hidden;portConstraint=eastwest;rotatable=0;whiteSpace=wrap;html=1;" vertex="1" parent="Product">
          <mxGeometry y="120" width="220" height="30" as="geometry" />
        </mxCell>
        <mxCell id="Product-stock" value="+ stock_quantity: INT (DEFAULT 0)" style="text;strokeColor=none;fillColor=none;align=left;verticalAlign=middle;spacingLeft=4;spacingRight=4;overflow=hidden;portConstraint=eastwest;rotatable=0;whiteSpace=wrap;html=1;" vertex="1" parent="Product">
          <mxGeometry y="150" width="220" height="30" as="geometry" />
        </mxCell>
        <mxCell id="Product-image" value="+ image_url: VARCHAR (NOT NULL)" style="text;strokeColor=none;fillColor=none;align=left;verticalAlign=middle;spacingLeft=4;spacingRight=4;overflow=hidden;portConstraint=eastwest;rotatable=0;whiteSpace=wrap;html=1;" vertex="1" parent="Product">
          <mxGeometry y="180" width="220" height="30" as="geometry" />
        </mxCell>
        <mxCell id="Product-category" value="+ category_id: UUID (FK, NOT NULL)" style="text;strokeColor=none;fillColor=none;align=left;verticalAlign=middle;spacingLeft=4;spacingRight=4;overflow=hidden;portConstraint=eastwest;rotatable=0;whiteSpace=wrap;html=1;" vertex="1" parent="Product">
          <mxGeometry y="210" width="220" height="30" as="geometry" />
        </mxCell>
        <mxCell id="Product-active" value="+ active: BOOLEAN (DEFAULT true)" style="text;strokeColor=none;fillColor=none;align=left;verticalAlign=middle;spacingLeft=4;spacingRight=4;overflow=hidden;portConstraint=eastwest;rotatable=0;whiteSpace=wrap;html=1;" vertex="1" parent="Product">
          <mxGeometry y="240" width="220" height="30" as="geometry" />
        </mxCell>
        <mxCell id="Product-deleted" value="+ deleted_at: TIMESTAMP (NULL)" style="text;strokeColor=none;fillColor=none;align=left;verticalAlign=middle;spacingLeft=4;spacingRight=4;overflow=hidden;portConstraint=eastwest;rotatable=0;whiteSpace=wrap;html=1;" vertex="1" parent="Product">
          <mxGeometry y="270" width="220" height="30" as="geometry" />
        </mxCell>
        <mxCell id="Product-rating" value="+ average_rating: DECIMAL(3,2) (DEFAULT 0)" style="text;strokeColor=none;fillColor=none;align=left;verticalAlign=middle;spacingLeft=4;spacingRight=4;overflow=hidden;portConstraint=eastwest;rotatable=0;whiteSpace=wrap;html=1;" vertex="1" parent="Product">
          <mxGeometry y="300" width="220" height="30" as="geometry" />
        </mxCell>
        <mxCell id="Product-review-count" value="+ review_count: INT (DEFAULT 0)" style="text;strokeColor=none;fillColor=none;align=left;verticalAlign=middle;spacingLeft=4;spacingRight=4;overflow=hidden;portConstraint=eastwest;rotatable=0;whiteSpace=wrap;html=1;" vertex="1" parent="Product">
          <mxGeometry y="330" width="220" height="30" as="geometry" />
        </mxCell>

        <!-- Cart Entity -->
        <mxCell id="Cart" value="Cart" style="swimlane;fontStyle=0;childLayout=stackLayout;horizontal=1;startSize=30;horizontalStack=0;resizeParent=1;resizeParentMax=0;resizeLast=0;collapsible=1;marginBottom=0;whiteSpace=wrap;html=1;" vertex="1" parent="1">
          <mxGeometry x="50" y="400" width="200" height="90" as="geometry" />
        </mxCell>
        <mxCell id="Cart-id" value="+ id: UUID (PK)" style="text;strokeColor=none;fillColor=none;align=left;verticalAlign=middle;spacingLeft=4;spacingRight=4;overflow=hidden;portConstraint=eastwest;rotatable=0;whiteSpace=wrap;html=1;" vertex="1" parent="Cart">
          <mxGeometry y="30" width="200" height="30" as="geometry" />
        </mxCell>
        <mxCell id="Cart-user" value="+ user_id: UUID (FK, UK, NOT NULL)" style="text;strokeColor=none;fillColor=none;align=left;verticalAlign=middle;spacingLeft=4;spacingRight=4;overflow=hidden;portConstraint=eastwest;rotatable=0;whiteSpace=wrap;html=1;" vertex="1" parent="Cart">
          <mxGeometry y="60" width="200" height="30" as="geometry" />
        </mxCell>

        <!-- CartItem Entity -->
        <mxCell id="CartItem" value="CartItem" style="swimlane;fontStyle=0;childLayout=stackLayout;horizontal=1;startSize=30;horizontalStack=0;resizeParent=1;resizeParentMax=0;resizeLast=0;collapsible=1;marginBottom=0;whiteSpace=wrap;html=1;" vertex="1" parent="1">
          <mxGeometry x="320" y="400" width="220" height="180" as="geometry" />
        </mxCell>
        <mxCell id="CartItem-id" value="+ id: UUID (PK)" style="text;strokeColor=none;fillColor=none;align=left;verticalAlign=middle;spacingLeft=4;spacingRight=4;overflow=hidden;portConstraint=eastwest;rotatable=0;whiteSpace=wrap;html=1;" vertex="1" parent="CartItem">
          <mxGeometry y="30" width="220" height="30" as="geometry" />
        </mxCell>
        <mxCell id="CartItem-cart" value="+ cart_id: UUID (FK, NOT NULL)" style="text;strokeColor=none;fillColor=none;align=left;verticalAlign=middle;spacingLeft=4;spacingRight=4;overflow=hidden;portConstraint=eastwest;rotatable=0;whiteSpace=wrap;html=1;" vertex="1" parent="CartItem">
          <mxGeometry y="60" width="220" height="30" as="geometry" />
        </mxCell>
        <mxCell id="CartItem-product" value="+ product_id: UUID (FK, NOT NULL)" style="text;strokeColor=none;fillColor=none;align=left;verticalAlign=middle;spacingLeft=4;spacingRight=4;overflow=hidden;portConstraint=eastwest;rotatable=0;whiteSpace=wrap;html=1;" vertex="1" parent="CartItem">
          <mxGeometry y="90" width="220" height="30" as="geometry" />
        </mxCell>
        <mxCell id="CartItem-quantity" value="+ quantity: INT (CHECK > 0)" style="text;strokeColor=none;fillColor=none;align=left;verticalAlign=middle;spacingLeft=4;spacingRight=4;overflow=hidden;portConstraint=eastwest;rotatable=0;whiteSpace=wrap;html=1;" vertex="1" parent="CartItem">
          <mxGeometry y="120" width="220" height="30" as="geometry" />
        </mxCell>
        <mxCell id="CartItem-price" value="+ price_at_addition: DECIMAL(10,2)" style="text;strokeColor=none;fillColor=none;align=left;verticalAlign=middle;spacingLeft=4;spacingRight=4;overflow=hidden;portConstraint=eastwest;rotatable=0;whiteSpace=wrap;html=1;" vertex="1" parent="CartItem">
          <mxGeometry y="150" width="220" height="30" as="geometry" />
        </mxCell>

        <!-- Relationship: Category -> Product -->
        <mxCell id="rel1" value="" style="endArrow=none;html=1;rounded=0;entryX=0;entryY=0.5;entryDx=0;entryDy=0;exitX=1;exitY=0.5;exitDx=0;exitDy=0;" edge="1" parent="1" source="Category-id" target="Product-category">
          <mxGeometry relative="1" as="geometry" />
        </mxCell>
        <mxCell id="rel1-label" value="1" style="edgeLabel;html=1;align=center;verticalAlign=middle;resizable=0;points=[];" vertex="1" connectable="0" parent="rel1">
          <mxGeometry x="-0.8" y="-1" relative="1" as="geometry">
            <mxPoint as="offset" />
          </mxGeometry>
        </mxCell>
        <mxCell id="rel1-label2" value="*" style="edgeLabel;html=1;align=center;verticalAlign=middle;resizable=0;points=[];" vertex="1" connectable="0" parent="rel1">
          <mxGeometry x="0.8" y="-1" relative="1" as="geometry">
            <mxPoint as="offset" />
          </mxGeometry>
        </mxCell>

        <!-- Relationship: User -> Cart -->
        <mxCell id="rel2" value="" style="endArrow=none;html=1;rounded=0;entryX=0.5;entryY=0;entryDx=0;entryDy=0;exitX=0.5;exitY=1;exitDx=0;exitDy=0;" edge="1" parent="1" source="User" target="Cart">
          <mxGeometry relative="1" as="geometry" />
        </mxCell>
        <mxCell id="rel2-label" value="1" style="edgeLabel;html=1;align=center;verticalAlign=middle;resizable=0;points=[];" vertex="1" connectable="0" parent="rel2">
          <mxGeometry x="-0.8" y="-1" relative="1" as="geometry">
            <mxPoint as="offset" />
          </mxGeometry>
        </mxCell>
        <mxCell id="rel2-label2" value="1" style="edgeLabel;html=1;align=center;verticalAlign=middle;resizable=0;points=[];" vertex="1" connectable="0" parent="rel2">
          <mxGeometry x="0.8" y="-1" relative="1" as="geometry">
            <mxPoint as="offset" />
          </mxGeometry>
        </mxCell>

        <!-- Relationship: Cart -> CartItem -->
        <mxCell id="rel3" value="" style="endArrow=none;html=1;rounded=0;entryX=0;entryY=0.5;entryDx=0;entryDy=0;exitX=1;exitY=0.5;exitDx=0;exitDy=0;" edge="1" parent="1" source="Cart-id" target="CartItem-cart">
          <mxGeometry relative="1" as="geometry" />
        </mxCell>
        <mxCell id="rel3-label" value="1" style="edgeLabel;html=1;align=center;verticalAlign=middle;resizable=0;points=[];" vertex="1" connectable="0" parent="rel3">
          <mxGeometry x="-0.8" y="-1" relative="1" as="geometry">
            <mxPoint as="offset" />
          </mxGeometry>
        </mxCell>
        <mxCell id="rel3-label2" value="*" style="edgeLabel;html=1;align=center;verticalAlign=middle;resizable=0;points=[];" vertex="1" connectable="0" parent="rel3">
          <mxGeometry x="0.8" y="-1" relative="1" as="geometry">
            <mxPoint as="offset" />
          </mxGeometry>
        </mxCell>

        <!-- Relationship: Product -> CartItem -->
        <mxCell id="rel4" value="" style="endArrow=none;html=1;rounded=0;entryX=1;entryY=0.5;entryDx=0;entryDy=0;exitX=0;exitY=0.5;exitDx=0;exitDy=0;" edge="1" parent="1" source="Product-id" target="CartItem-product">
          <mxGeometry relative="1" as="geometry" />
        </mxCell>
        <mxCell id="rel4-label" value="1" style="edgeLabel;html=1;align=center;verticalAlign=middle;resizable=0;points=[];" vertex="1" connectable="0" parent="rel4">
          <mxGeometry x="-0.8" y="-1" relative="1" as="geometry">
            <mxPoint as="offset" />
          </mxGeometry>
        </mxCell>
        <mxCell id="rel4-label2" value="*" style="edgeLabel;html=1;align=center;verticalAlign=middle;resizable=0;points=[];" vertex="1" connectable="0" parent="rel4">
          <mxGeometry x="0.8" y="-1" relative="1" as="geometry">
            <mxPoint as="offset" />
          </mxGeometry>
        </mxCell>

        <!-- Order Entity -->
        <mxCell id="Order" value="Order" style="swimlane;fontStyle=0;childLayout=stackLayout;horizontal=1;startSize=30;horizontalStack=0;resizeParent=1;resizeParentMax=0;resizeLast=0;collapsible=1;marginBottom=0;whiteSpace=wrap;html=1;" vertex="1" parent="1">
          <mxGeometry x="50" y="600" width="220" height="240" as="geometry" />
        </mxCell>
        <mxCell id="Order-id" value="+ id: UUID (PK)" style="text;strokeColor=none;fillColor=none;align=left;verticalAlign=middle;spacingLeft=4;spacingRight=4;overflow=hidden;portConstraint=eastwest;rotatable=0;whiteSpace=wrap;html=1;" vertex="1" parent="Order">
          <mxGeometry y="30" width="220" height="30" as="geometry" />
        </mxCell>
        <mxCell id="Order-user" value="+ user_id: UUID (FK, NOT NULL)" style="text;strokeColor=none;fillColor=none;align=left;verticalAlign=middle;spacingLeft=4;spacingRight=4;overflow=hidden;portConstraint=eastwest;rotatable=0;whiteSpace=wrap;html=1;" vertex="1" parent="Order">
          <mxGeometry y="60" width="220" height="30" as="geometry" />
        </mxCell>
        <mxCell id="Order-status" value="+ status: ENUM (DEFAULT 'PENDING')" style="text;strokeColor=none;fillColor=none;align=left;verticalAlign=middle;spacingLeft=4;spacingRight=4;overflow=hidden;portConstraint=eastwest;rotatable=0;whiteSpace=wrap;html=1;" vertex="1" parent="Order">
          <mxGeometry y="90" width="220" height="30" as="geometry" />
        </mxCell>
        <mxCell id="Order-payment-status" value="+ payment_status: ENUM (DEFAULT 'PENDING')" style="text;strokeColor=none;fillColor=none;align=left;verticalAlign=middle;spacingLeft=4;spacingRight=4;overflow=hidden;portConstraint=eastwest;rotatable=0;whiteSpace=wrap;html=1;" vertex="1" parent="Order">
          <mxGeometry y="120" width="220" height="30" as="geometry" />
        </mxCell>
        <mxCell id="Order-total" value="+ total_amount: DECIMAL(10,2) (NOT NULL)" style="text;strokeColor=none;fillColor=none;align=left;verticalAlign=middle;spacingLeft=4;spacingRight=4;overflow=hidden;portConstraint=eastwest;rotatable=0;whiteSpace=wrap;html=1;" vertex="1" parent="Order">
          <mxGeometry y="150" width="220" height="30" as="geometry" />
        </mxCell>
        <mxCell id="Order-date" value="+ order_date: TIMESTAMP (DEFAULT NOW)" style="text;strokeColor=none;fillColor=none;align=left;verticalAlign=middle;spacingLeft=4;spacingRight=4;overflow=hidden;portConstraint=eastwest;rotatable=0;whiteSpace=wrap;html=1;" vertex="1" parent="Order">
          <mxGeometry y="180" width="220" height="30" as="geometry" />
        </mxCell>
        <mxCell id="Order-transaction" value="+ transaction_id: VARCHAR (NULL)" style="text;strokeColor=none;fillColor=none;align=left;verticalAlign=middle;spacingLeft=4;spacingRight=4;overflow=hidden;portConstraint=eastwest;rotatable=0;whiteSpace=wrap;html=1;" vertex="1" parent="Order">
          <mxGeometry y="210" width="220" height="30" as="geometry" />
        </mxCell>

        <!-- OrderItem Entity -->
        <mxCell id="OrderItem" value="OrderItem" style="swimlane;fontStyle=0;childLayout=stackLayout;horizontal=1;startSize=30;horizontalStack=0;resizeParent=1;resizeParentMax=0;resizeLast=0;collapsible=1;marginBottom=0;whiteSpace=wrap;html=1;" vertex="1" parent="1">
          <mxGeometry x="320" y="600" width="220" height="180" as="geometry" />
        </mxCell>
        <mxCell id="OrderItem-id" value="+ id: UUID (PK)" style="text;strokeColor=none;fillColor=none;align=left;verticalAlign=middle;spacingLeft=4;spacingRight=4;overflow=hidden;portConstraint=eastwest;rotatable=0;whiteSpace=wrap;html=1;" vertex="1" parent="OrderItem">
          <mxGeometry y="30" width="220" height="30" as="geometry" />
        </mxCell>
        <mxCell id="OrderItem-order" value="+ order_id: UUID (FK, NOT NULL)" style="text;strokeColor=none;fillColor=none;align=left;verticalAlign=middle;spacingLeft=4;spacingRight=4;overflow=hidden;portConstraint=eastwest;rotatable=0;whiteSpace=wrap;html=1;" vertex="1" parent="OrderItem">
          <mxGeometry y="60" width="220" height="30" as="geometry" />
        </mxCell>
        <mxCell id="OrderItem-product" value="+ product_id: UUID (FK, NULL)" style="text;strokeColor=none;fillColor=none;align=left;verticalAlign=middle;spacingLeft=4;spacingRight=4;overflow=hidden;portConstraint=eastwest;rotatable=0;whiteSpace=wrap;html=1;" vertex="1" parent="OrderItem">
          <mxGeometry y="90" width="220" height="30" as="geometry" />
        </mxCell>
        <mxCell id="OrderItem-quantity" value="+ quantity: INT (CHECK > 0)" style="text;strokeColor=none;fillColor=none;align=left;verticalAlign=middle;spacingLeft=4;spacingRight=4;overflow=hidden;portConstraint=eastwest;rotatable=0;whiteSpace=wrap;html=1;" vertex="1" parent="OrderItem">
          <mxGeometry y="120" width="220" height="30" as="geometry" />
        </mxCell>
        <mxCell id="OrderItem-price" value="+ price_at_purchase: DECIMAL(10,2)" style="text;strokeColor=none;fillColor=none;align=left;verticalAlign=middle;spacingLeft=4;spacingRight=4;overflow=hidden;portConstraint=eastwest;rotatable=0;whiteSpace=wrap;html=1;" vertex="1" parent="OrderItem">
          <mxGeometry y="150" width="220" height="30" as="geometry" />
        </mxCell>

        <!-- Review Entity -->
        <mxCell id="Review" value="Review" style="swimlane;fontStyle=0;childLayout=stackLayout;horizontal=1;startSize=30;horizontalStack=0;resizeParent=1;resizeParentMax=0;resizeLast=0;collapsible=1;marginBottom=0;whiteSpace=wrap;html=1;" vertex="1" parent="1">
          <mxGeometry x="580" y="600" width="220" height="210" as="geometry" />
        </mxCell>
        <mxCell id="Review-id" value="+ id: UUID (PK)" style="text;strokeColor=none;fillColor=none;align=left;verticalAlign=middle;spacingLeft=4;spacingRight=4;overflow=hidden;portConstraint=eastwest;rotatable=0;whiteSpace=wrap;html=1;" vertex="1" parent="Review">
          <mxGeometry y="30" width="220" height="30" as="geometry" />
        </mxCell>
        <mxCell id="Review-user" value="+ user_id: UUID (FK, NOT NULL)" style="text;strokeColor=none;fillColor=none;align=left;verticalAlign=middle;spacingLeft=4;spacingRight=4;overflow=hidden;portConstraint=eastwest;rotatable=0;whiteSpace=wrap;html=1;" vertex="1" parent="Review">
          <mxGeometry y="60" width="220" height="30" as="geometry" />
        </mxCell>
        <mxCell id="Review-product" value="+ product_id: UUID (FK, NOT NULL)" style="text;strokeColor=none;fillColor=none;align=left;verticalAlign=middle;spacingLeft=4;spacingRight=4;overflow=hidden;portConstraint=eastwest;rotatable=0;whiteSpace=wrap;html=1;" vertex="1" parent="Review">
          <mxGeometry y="90" width="220" height="30" as="geometry" />
        </mxCell>
        <mxCell id="Review-rating" value="+ rating: INT (CHECK 1-5)" style="text;strokeColor=none;fillColor=none;align=left;verticalAlign=middle;spacingLeft=4;spacingRight=4;overflow=hidden;portConstraint=eastwest;rotatable=0;whiteSpace=wrap;html=1;" vertex="1" parent="Review">
          <mxGeometry y="120" width="220" height="30" as="geometry" />
        </mxCell>
        <mxCell id="Review-comment" value="+ comment: TEXT (NULL)" style="text;strokeColor=none;fillColor=none;align=left;verticalAlign=middle;spacingLeft=4;spacingRight=4;overflow=hidden;portConstraint=eastwest;rotatable=0;whiteSpace=wrap;html=1;" vertex="1" parent="Review">
          <mxGeometry y="150" width="220" height="30" as="geometry" />
        </mxCell>
        <mxCell id="Review-unique" value="+ UNIQUE(user_id, product_id)" style="text;strokeColor=none;fillColor=none;align=left;verticalAlign=middle;spacingLeft=4;spacingRight=4;overflow=hidden;portConstraint=eastwest;rotatable=0;whiteSpace=wrap;html=1;" vertex="1" parent="Review">
          <mxGeometry y="180" width="220" height="30" as="geometry" />
        </mxCell>

        <!-- TokenBlacklist Entity -->
        <mxCell id="TokenBlacklist" value="TokenBlacklist" style="swimlane;fontStyle=0;childLayout=stackLayout;horizontal=1;startSize=30;horizontalStack=0;resizeParent=1;resizeParentMax=0;resizeLast=0;collapsible=1;marginBottom=0;whiteSpace=wrap;html=1;" vertex="1" parent="1">
          <mxGeometry x="850" y="50" width="200" height="120" as="geometry" />
        </mxCell>
        <mxCell id="TokenBlacklist-id" value="+ id: UUID (PK)" style="text;strokeColor=none;fillColor=none;align=left;verticalAlign=middle;spacingLeft=4;spacingRight=4;overflow=hidden;portConstraint=eastwest;rotatable=0;whiteSpace=wrap;html=1;" vertex="1" parent="TokenBlacklist">
          <mxGeometry y="30" width="200" height="30" as="geometry" />
        </mxCell>
        <mxCell id="TokenBlacklist-token" value="+ token: TEXT (UK, NOT NULL)" style="text;strokeColor=none;fillColor=none;align=left;verticalAlign=middle;spacingLeft=4;spacingRight=4;overflow=hidden;portConstraint=eastwest;rotatable=0;whiteSpace=wrap;html=1;" vertex="1" parent="TokenBlacklist">
          <mxGeometry y="60" width="200" height="30" as="geometry" />
        </mxCell>
        <mxCell id="TokenBlacklist-expires" value="+ expires_at: TIMESTAMP (NOT NULL)" style="text;strokeColor=none;fillColor=none;align=left;verticalAlign=middle;spacingLeft=4;spacingRight=4;overflow=hidden;portConstraint=eastwest;rotatable=0;whiteSpace=wrap;html=1;" vertex="1" parent="TokenBlacklist">
          <mxGeometry y="90" width="200" height="30" as="geometry" />
        </mxCell>

        <!-- Additional Relationships -->
        
        <!-- Relationship: User -> Order -->
        <mxCell id="rel5" value="" style="endArrow=none;html=1;rounded=0;entryX=0;entryY=0.25;entryDx=0;entryDy=0;exitX=1;exitY=0.5;exitDx=0;exitDy=0;" edge="1" parent="1" source="User-id" target="Order-user">
          <mxGeometry relative="1" as="geometry">
            <mxPoint x="160" y="450" as="sourcePoint"/>
            <mxPoint x="40" y="650" as="targetPoint"/>
            <Array as="points">
              <mxPoint x="280" y="300"/>
              <mxPoint x="280" y="650"/>
            </Array>
          </mxGeometry>
        </mxCell>
        <mxCell id="rel5-label" value="1" style="edgeLabel;html=1;align=center;verticalAlign=middle;resizable=0;points=[];" vertex="1" connectable="0" parent="rel5">
          <mxGeometry x="-0.8" y="-1" relative="1" as="geometry">
            <mxPoint as="offset" />
          </mxGeometry>
        </mxCell>
        <mxCell id="rel5-label2" value="*" style="edgeLabel;html=1;align=center;verticalAlign=middle;resizable=0;points=[];" vertex="1" connectable="0" parent="rel5">
          <mxGeometry x="0.8" y="-1" relative="1" as="geometry">
            <mxPoint as="offset" />
          </mxGeometry>
        </mxCell>

        <!-- Relationship: Order -> OrderItem -->
        <mxCell id="rel6" value="" style="endArrow=none;html=1;rounded=0;entryX=0;entryY=0.5;entryDx=0;entryDy=0;exitX=1;exitY=0.5;exitDx=0;exitDy=0;" edge="1" parent="1" source="Order-id" target="OrderItem-order">
          <mxGeometry relative="1" as="geometry" />
        </mxCell>
        <mxCell id="rel6-label" value="1" style="edgeLabel;html=1;align=center;verticalAlign=middle;resizable=0;points=[];" vertex="1" connectable="0" parent="rel6">
          <mxGeometry x="-0.8" y="-1" relative="1" as="geometry">
            <mxPoint as="offset" />
          </mxGeometry>
        </mxCell>
        <mxCell id="rel6-label2" value="*" style="edgeLabel;html=1;align=center;verticalAlign=middle;resizable=0;points=[];" vertex="1" connectable="0" parent="rel6">
          <mxGeometry x="0.8" y="-1" relative="1" as="geometry">
            <mxPoint as="offset" />
          </mxGeometry>
        </mxCell>

        <!-- Relationship: Product -> OrderItem -->
        <mxCell id="rel7" value="" style="endArrow=none;html=1;rounded=0;entryX=0;entryY=0.75;entryDx=0;entryDy=0;exitX=1;exitY=0.75;exitDx=0;exitDy=0;" edge="1" parent="1" source="Product-id" target="OrderItem-product">
          <mxGeometry relative="1" as="geometry" >
            <mxPoint x="690" y="700" as="sourcePoint"/>
            <mxPoint x="550" y="700" as="targetPoint"/>
             <Array as="points">
              <mxPoint x="560" y="320"/>
              <mxPoint x="560" y="720"/>
            </Array>
          </mxGeometry>
        </mxCell>
        <mxCell id="rel7-label" value="1" style="edgeLabel;html=1;align=center;verticalAlign=middle;resizable=0;points=[];" vertex="1" connectable="0" parent="rel7">
          <mxGeometry x="-0.8" y="-1" relative="1" as="geometry">
            <mxPoint as="offset" />
          </mxGeometry>
        </mxCell>
        <mxCell id="rel7-label2" value="*" style="edgeLabel;html=1;align=center;verticalAlign=middle;resizable=0;points=[];" vertex="1" connectable="0" parent="rel7">
          <mxGeometry x="0.8" y="-1" relative="1" as="geometry">
            <mxPoint as="offset" />
          </mxGeometry>
        </mxCell>

        <!-- Relationship: User -> Review -->
        <mxCell id="rel8" value="" style="endArrow=none;html=1;rounded=0;entryX=0;entryY=0.25;entryDx=0;entryDy=0;exitX=1;exitY=0.25;exitDx=0;exitDy=0;" edge="1" parent="1" source="User-id" target="Review-user">
          <mxGeometry relative="1" as="geometry">
            <mxPoint x="260" y="120" as="sourcePoint"/>
            <mxPoint x="570" y="650" as="targetPoint"/>
            <Array as="points">
              <mxPoint x="400" y="120"/>
              <mxPoint x="400" y="650"/>
            </Array>
          </mxGeometry>
        </mxCell>
        <mxCell id="rel8-label" value="1" style="edgeLabel;html=1;align=center;verticalAlign=middle;resizable=0;points=[];" vertex="1" connectable="0" parent="rel8">
          <mxGeometry x="-0.8" y="-1" relative="1" as="geometry">
            <mxPoint as="offset" />
          </mxGeometry>
        </mxCell>
        <mxCell id="rel8-label2" value="*" style="edgeLabel;html=1;align=center;verticalAlign=middle;resizable=0;points=[];" vertex="1" connectable="0" parent="rel8">
          <mxGeometry x="0.8" y="-1" relative="1" as="geometry">
            <mxPoint as="offset" />
          </mxGeometry>
        </mxCell>

        <!-- Relationship: Product -> Review -->
        <mxCell id="rel9" value="" style="endArrow=none;html=1;rounded=0;entryX=0.5;entryY=0;entryDx=0;entryDy=0;exitX=0.5;exitY=1;exitDx=0;exitDy=0;" edge="1" parent="1" source="Product-id" target="Review-product">
          <mxGeometry relative="1" as="geometry">
            <mxPoint x="690" y="420" as="sourcePoint"/>
            <mxPoint x="690" y="590" as="targetPoint"/>
          </mxGeometry>
        </mxCell>
        <mxCell id="rel9-label" value="1" style="edgeLabel;html=1;align=center;verticalAlign=middle;resizable=0;points=[];" vertex="1" connectable="0" parent="rel9">
          <mxGeometry x="-0.8" y="-1" relative="1" as="geometry">
            <mxPoint as="offset" />
          </mxGeometry>
        </mxCell>
        <mxCell id="rel9-label2" value="*" style="edgeLabel;html=1;align=center;verticalAlign=middle;resizable=0;points=[];" vertex="1" connectable="0" parent="rel9">
          <mxGeometry x="0.8" y="-1" relative="1" as="geometry">
            <mxPoint as="offset" />
          </mxGeometry>
        </mxCell>

      </root>
    </mxGraphModel>
  </diagram>
</mxfile>
